# xmcd
#
# Track frame offsets: 
#        150
#        15861
#        26965
#        36093
#        54076
#        69391
#        88657
#        96818
#        109020
#        119477
#        132640
#        145570
#        156231
#        164212
#
# Disc length: 2472 seconds
#
# Revision: 2
# Processed by: cddbd v1.5.2PL0 Copyright (c) Steve Scherf et al.
# Submitted via: ExactAudioCopyFreeDBPlugin 1.0
#
DISCID=ba09a60e
DTITLE=Przytuła and Kruk - Przytuła and Kruk
DYEAR=2011
DGENRE=Blues
TTITLE0=Greyhound
TTITLE1=Don't go wastin' my time
TTITLE2=Don't sit under tha apple tree
TTITLE3=Prayer
TTITLE4=Me and the devil
TTITLE5=Cryin'
TTITLE6=Landlord
TTITLE7=Modern gentleman
TTITLE8=Trouble gonna be here soon
TTITLE9=Ice Cream Man
TTITLE10=I've been drinkin'
TTITLE11=If you got a dime
TTITLE12=Bonus track 1
TTITLE13=Bonus track 2
EXTD=
EXTT0=
EXTT1=
EXTT2=
EXTT3=
EXTT4=
EXTT5=
EXTT6=
EXTT7=
EXTT8=
EXTT9=
EXTT10=
EXTT11=
EXTT12=
EXTT13=
PLAYORDER=
